<svg version="1.1" xmlns="http://www.w3.org/2000/svg" viewBox="0 0 174.18111959639748 222.63052828290193" width="174.18111959639748" height="222.63052828290193">  
  <defs>
    <style class="style-fonts">
      
    </style>
    
  </defs>
<g stroke-linecap="round" transform="translate(48.09055747062075 53.37994941494691) rotate(0 23.928824529042572 22.024198548174894)"><path d="M28.86 0.09 C33.66 0.68, 39.49 4.5, 42.66 8.22 C45.84 11.93, 48.06 17.76, 47.92 22.39 C47.77 27.02, 45.13 32.38, 41.78 36.01 C38.44 39.63, 32.94 43.23, 27.84 44.13 C22.74 45.03, 15.62 43.92, 11.18 41.39 C6.74 38.87, 2.82 33.57, 1.2 28.97 C-0.42 24.38, -0.4 18.25, 1.44 13.84 C3.29 9.44, 7.67 4.7, 12.25 2.54 C16.83 0.39, 26.02 1.13, 28.91 0.91 C31.8 0.69, 29.59 1, 29.57 1.24 M24.51 0.49 C29.35 0.42, 36 2.15, 39.87 5.33 C43.73 8.5, 47.08 14.85, 47.7 19.53 C48.33 24.21, 46.41 29.53, 43.64 33.39 C40.87 37.26, 35.85 41.26, 31.09 42.73 C26.32 44.21, 19.89 44.06, 15.06 42.24 C10.23 40.43, 4.57 36.03, 2.12 31.84 C-0.34 27.66, -0.81 21.77, 0.31 17.14 C1.44 12.51, 4.89 6.8, 8.86 4.05 C12.83 1.31, 21.49 1.34, 24.12 0.66 C26.76 -0.02, 24.49 -0.31, 24.68 -0.03" stroke="#fff" stroke-width="2" fill="none"></path></g><g stroke-linecap="round"><g transform="translate(70.27658384363826 97.1832987325019) rotate(0 -0.2646806678279745 3.6230435873294766)"><path d="M0.27 0.31 C0.13 1.6, -0.39 6.37, -0.56 7.55 M-0.02 0.16 C-0.24 1.38, -0.85 5.98, -0.85 7.08" stroke="#fff" stroke-width="2" fill="none"></path></g></g><mask></mask><g stroke-linecap="round"><g transform="translate(40.41843897579611 57.55794995518511) rotate(0 34.38014269842893 6.994616716016651)"><path d="M-1.03 0.27 C10.57 2.51, 57.81 10.62, 69.63 12.86 M0.63 -0.64 C12.14 1.76, 57.62 11.22, 69.13 13.8" stroke="#fff" stroke-width="2" fill="none"></path></g></g><mask></mask><g stroke-linecap="round" transform="translate(62.30288008481921 12.867238383318295) rotate(10.74366233694554 17.723245724404308 24.91000585331713)"><path d="M0.23 -0.03 L35.43 -0.91 L34.76 50.04 L-0.24 49.24" stroke="none" stroke-width="0" fill="#fff"></path><path d="M0 0 C6.66 0.8, 14.96 -0.67, 35.45 0 M0 0 C9.5 -0.25, 19.88 -0.19, 35.45 0 M35.45 0 C35.66 16.22, 34.73 31.79, 35.45 49.82 M35.45 0 C35.47 18.5, 35.04 36.05, 35.45 49.82 M35.45 49.82 C25.55 48.95, 15.49 49.56, 0 49.82 M35.45 49.82 C25.7 50.11, 16.78 49.36, 0 49.82 M0 49.82 C-0.55 32.38, 0.53 13.23, 0 0 M0 49.82 C-0.27 35.48, 0.24 20.73, 0 0" stroke="#fff" stroke-width="2" fill="none"></path></g><g stroke-linecap="round"><g transform="translate(72.24359967347812 85.0028715552329) rotate(0 0.8557795852884738 4.786534914830156)" fill-rule="evenodd"><path d="M0.4 -0.62 C3.05 0.33, 11.33 3.99, 15.21 4.93 C19.08 5.87, 21.45 5.78, 23.66 5 C25.88 4.22, 28.5 -1.12, 28.5 0.23 C28.5 1.58, 25.61 11.5, 23.66 13.12 C21.7 14.74, 20.46 10.87, 16.77 9.95 C13.08 9.04, 7.42 7.9, 1.52 7.62 C-4.37 7.33, -14.07 9.61, -18.59 8.25 C-23.11 6.9, -25.81 0.18, -25.59 -0.53 C-25.38 -1.24, -21.41 3.92, -17.32 3.98 C-13.23 4.04, -3.63 0.26, -1.05 -0.17" stroke="none" stroke-width="0" fill="#fff" fill-rule="evenodd"></path><path d="M1.11 -0.29 C3.76 0.94, 13.01 5.23, 16.75 6.25 C20.49 7.28, 21.49 6.63, 23.55 5.85 C25.6 5.07, 28.56 0.79, 29.09 1.57 C29.62 2.35, 28.7 8.81, 26.74 10.53 C24.79 12.24, 22 12.4, 17.37 11.85 C12.74 11.3, 4.81 7.81, -1.04 7.25 C-6.88 6.7, -13.14 9.94, -17.71 8.53 C-22.28 7.12, -28.38 -0.36, -28.43 -1.18 C-28.48 -2.01, -22.77 3.23, -18.01 3.58 C-13.25 3.92, -2.73 1.56, 0.12 0.87 M0.24 -1.49 C3.2 0.02, 14.83 6.2, 19.13 7.64 C23.42 9.07, 24.36 8.01, 26.01 7.13 C27.66 6.25, 29.07 1.76, 29.03 2.35 C28.98 2.94, 28.04 9.22, 25.75 10.66 C23.45 12.1, 19.7 11.76, 15.26 10.98 C10.83 10.2, 4.81 6.55, -0.85 6 C-6.5 5.45, -14.34 9.05, -18.65 7.69 C-22.96 6.33, -26.91 -1.35, -26.68 -2.16 C-26.46 -2.97, -21.85 2.69, -17.32 2.83 C-12.79 2.97, -2.53 -0.67, 0.5 -1.34" stroke="#fff" stroke-width="1" fill="none"></path></g></g><mask></mask><g stroke-linecap="round" transform="translate(53.28235230047301 66.94479437971921) rotate(0 7.839251475113656 6.242481675307886)"><path d="M6.26 0.47 C7.79 0.23, 10.07 0.41, 11.59 0.97 C13.1 1.52, 14.74 2.53, 15.35 3.78 C15.97 5.03, 15.94 7.19, 15.26 8.47 C14.59 9.76, 12.75 10.83, 11.33 11.47 C9.91 12.11, 8.39 12.52, 6.76 12.32 C5.13 12.12, 2.64 11.36, 1.58 10.28 C0.51 9.2, 0.35 7.2, 0.36 5.83 C0.38 4.46, 0.61 3.01, 1.64 2.07 C2.68 1.12, 5.7 0.54, 6.57 0.14 C7.44 -0.25, 6.86 -0.35, 6.85 -0.28 M6.43 0.67 C8.06 0.49, 10.61 -0.06, 12.19 0.62 C13.77 1.3, 15.49 3.44, 15.92 4.75 C16.34 6.06, 15.41 7.21, 14.75 8.47 C14.08 9.73, 13.38 11.69, 11.93 12.32 C10.48 12.95, 7.83 12.66, 6.03 12.24 C4.23 11.82, 2.22 10.82, 1.13 9.81 C0.03 8.8, -0.77 7.46, -0.55 6.18 C-0.32 4.9, 1.16 3.16, 2.46 2.13 C3.76 1.1, 6.51 0.45, 7.28 0 C8.05 -0.44, 7.2 -0.67, 7.1 -0.53" stroke="#fff" stroke-width="1" fill="none"></path></g><g stroke-linecap="round" transform="translate(60.39688098570991 71.8688771455474) rotate(0 0.4090044247885203 0.5370765173991003)"><path d="M0.24 0.08 C0.37 -0.02, 0.63 -0.2, 0.74 -0.14 C0.84 -0.08, 0.89 0.32, 0.85 0.45 C0.82 0.58, 0.53 0.55, 0.52 0.64 C0.51 0.73, 0.86 0.91, 0.79 0.98 C0.73 1.06, 0.23 1.15, 0.15 1.09 C0.07 1.02, 0.36 0.71, 0.32 0.59 C0.27 0.47, -0.09 0.46, -0.14 0.39 C-0.19 0.33, -0.06 0.33, 0.01 0.21 C0.09 0.09, 0.27 -0.25, 0.3 -0.3 C0.32 -0.35, 0.17 -0.12, 0.17 -0.08 M0.29 -0.32 C0.5 -0.39, 0.91 0.12, 0.98 0.19 C1.04 0.27, 0.6 -0.01, 0.65 0.13 C0.7 0.26, 1.26 0.89, 1.27 1.03 C1.28 1.17, 0.9 0.98, 0.71 0.98 C0.51 0.98, 0.27 1, 0.11 1.03 C-0.06 1.06, -0.3 1.21, -0.3 1.16 C-0.29 1.1, 0.05 0.86, 0.13 0.7 C0.22 0.53, 0.19 0.35, 0.22 0.16 C0.26 -0.03, 0.38 -0.44, 0.34 -0.45 C0.31 -0.46, 0.03 0.09, 0.01 0.13" stroke="#fff" stroke-width="1" fill="none"></path></g><g stroke-linecap="round" transform="translate(81.9171239021183 73.72385680948724) rotate(0 0.4131357826146882 0.7023308304449642)"><path d="M0.56 -0.23 C0.67 -0.23, 0.76 0.14, 0.76 0.27 C0.77 0.4, 0.53 0.4, 0.56 0.54 C0.6 0.68, 0.99 0.94, 0.96 1.09 C0.92 1.23, 0.43 1.42, 0.35 1.42 C0.27 1.42, 0.54 1.16, 0.47 1.07 C0.39 0.98, -0.02 0.97, -0.11 0.88 C-0.21 0.79, -0.13 0.73, -0.09 0.55 C-0.06 0.37, 0.05 -0.08, 0.1 -0.19 C0.16 -0.29, 0.21 -0.1, 0.25 -0.09 C0.29 -0.08, 0.36 -0.12, 0.35 -0.14 M0.82 0.12 C0.89 0.14, 0.49 -0.16, 0.57 -0.02 C0.66 0.13, 1.27 0.78, 1.31 0.97 C1.36 1.16, 1.02 1.04, 0.85 1.11 C0.68 1.17, 0.45 1.27, 0.28 1.36 C0.11 1.44, -0.14 1.65, -0.16 1.61 C-0.18 1.58, 0.11 1.34, 0.16 1.15 C0.21 0.96, 0.13 0.72, 0.14 0.47 C0.14 0.22, 0.19 -0.29, 0.18 -0.35 C0.18 -0.41, 0.1 0.1, 0.13 0.12 C0.16 0.13, 0.28 -0.27, 0.35 -0.27" stroke="#fff" stroke-width="1" fill="none"></path></g><g stroke-linecap="round" transform="translate(10 105.18572314538307) rotate(0 63.895591836203835 53.722402568759435)"><path d="M3.37 -0.75 C29.77 -3.35, 54.22 3.36, 125.6 -2.3 M0.99 -0.86 C41.34 -1.15, 86.37 -1.72, 127.59 -1.39 M126.28 -3.75 C129.02 32.1, 130.59 65.34, 125.02 106.77 M128.08 1.54 C125.9 41.93, 126.98 81.42, 128.17 105.66 M124.37 111.39 C72.92 105.43, 25.12 106.12, -1.89 105.24 M129.68 107 C81.11 105.19, 36.33 106.47, -0.92 107.71 M0.78 108.39 C0.35 66.03, 2.36 21.89, 0.47 1.4 M0.27 106.89 C0.06 77.34, 0.28 43.83, -1.45 -0.89" stroke="#fff" stroke-width="2" fill="none"></path></g><g stroke-linecap="round" transform="translate(137.9657982576781 117.9701232961981) rotate(0 13.107660669359689 22.271271005268574)"><path d="M13.02 0.04 C15.6 -0.24, 18.71 2.32, 20.95 5.27 C23.18 8.22, 25.8 13.12, 26.42 17.73 C27.04 22.34, 26.05 28.72, 24.68 32.93 C23.32 37.14, 20.93 41.33, 18.23 43 C15.54 44.67, 11.31 44.47, 8.51 42.96 C5.72 41.44, 2.79 37.88, 1.46 33.93 C0.13 29.98, 0.08 24.01, 0.52 19.23 C0.97 14.46, 2.09 8.43, 4.13 5.28 C6.18 2.12, 11.12 1.16, 12.79 0.29 C14.45 -0.59, 13.99 -0.25, 14.1 0.01 M15.8 0.48 C18.45 0.97, 21.56 3.63, 23.22 7.33 C24.88 11.02, 25.75 17.86, 25.77 22.65 C25.8 27.45, 25.14 32.56, 23.36 36.11 C21.58 39.65, 17.96 43.02, 15.1 43.94 C12.23 44.87, 8.66 43.95, 6.16 41.67 C3.66 39.38, 0.89 34.6, 0.1 30.23 C-0.69 25.87, 0.3 20.09, 1.4 15.5 C2.51 10.91, 4.4 5.17, 6.72 2.69 C9.04 0.2, 13.94 0.8, 15.32 0.59 C16.7 0.37, 15.04 0.94, 15.02 1.38" stroke="#fff" stroke-width="4" fill="none"></path></g></svg>